<?xml version="1.0" encoding="UTF-8" standalone="no"?>
<!-- Created with Inkscape (http://www.inkscape.org/) -->

<svg
   xmlns:dc="http://purl.org/dc/elements/1.1/"
   xmlns:cc="http://creativecommons.org/ns#"
   xmlns:rdf="http://www.w3.org/1999/02/22-rdf-syntax-ns#"
   xmlns:svg="http://www.w3.org/2000/svg"
   xmlns="http://www.w3.org/2000/svg"
   xmlns:sodipodi="http://sodipodi.sourceforge.net/DTD/sodipodi-0.dtd"
   xmlns:inkscape="http://www.inkscape.org/namespaces/inkscape"
   width="174.60173mm"
   height="145.82661mm"
   viewBox="0 0 174.60173 145.82661"
   version="1.1"
   id="svg8"
   inkscape:version="0.92.1 r15371"
   sodipodi:docname="ArgeBee.svg">
  <defs
     id="defs2" />
  <sodipodi:namedview
     id="base"
     pagecolor="#ffffff"
     bordercolor="#666666"
     borderopacity="1.0"
     inkscape:pageopacity="0.0"
     inkscape:pageshadow="2"
     inkscape:zoom="0.7"
     inkscape:cx="356.59892"
     inkscape:cy="223.06953"
     inkscape:document-units="mm"
     inkscape:current-layer="layer1"
     showgrid="false"
     fit-margin-top="0"
     fit-margin-left="0"
     fit-margin-right="0"
     fit-margin-bottom="0"
     inkscape:window-width="1920"
     inkscape:window-height="1028"
     inkscape:window-x="3832"
     inkscape:window-y="-8"
     inkscape:window-maximized="1" />
  <metadata
     id="metadata5">
    <rdf:RDF>
      <cc:Work
         rdf:about="">
        <dc:format>image/svg+xml</dc:format>
        <dc:type
           rdf:resource="http://purl.org/dc/dcmitype/StillImage" />
        <dc:title></dc:title>
      </cc:Work>
    </rdf:RDF>
  </metadata>
  <g
     inkscape:label="Ebene 1"
     inkscape:groupmode="layer"
     id="layer1"
     transform="translate(-29.966074,-60.259014)">
    <path
       style="fill:#0000ff;fill-opacity:1;stroke:none;stroke-width:0.29474944"
       d="m 201.52121,150.06857 a 29.600101,32.13916 0 0 1 -29.6001,32.13916 29.600101,32.13916 0 0 1 -29.6001,-32.13916 29.600101,32.13916 0 0 1 29.6001,-32.13916 29.600101,32.13916 0 0 1 29.6001,32.13916 z"
       id="path4511"
       inkscape:connector-curvature="0" />
    <path
       style="fill:#00ff00;fill-opacity:1;stroke:none;stroke-width:0.26458332px;stroke-linecap:butt;stroke-linejoin:miter;stroke-opacity:1"
       d="m 93.677969,147.99724 c -0.395594,22.47841 4.527463,41.88837 22.584271,53.72117 l 27.39513,-8.15172 -18.04069,-43.03039 z"
       id="path4509"
       inkscape:connector-curvature="0"
       sodipodi:nodetypes="ccccc" />
    <path
       style="fill:#ff0000;fill-opacity:1;stroke:none;stroke-width:0.26458332px;stroke-linecap:butt;stroke-linejoin:miter;stroke-opacity:1"
       d="m 62.674703,134.7674 -16.169807,12.56166 c -1.333244,16.39823 0.765675,30.47975 9.48807,40.09043 l 24.054257,11.49259 -8.418991,-58.66566 z"
       id="path4507"
       inkscape:connector-curvature="0"
       sodipodi:nodetypes="cccccc" />
    <g
       id="g21"
       transform="translate(15.875001,-17.197916)">
      <path
         style="fill:#fffffe;fill-opacity:1;stroke-width:0.26458335"
         d="m 46.345056,148.8052 c -10.572707,-7.01838 -29.137783,-20.60789 -16.354155,-36.26684 2.792886,-3.42106 9.229962,-2.48742 12.899245,-6.66658 5.745866,-6.544297 -2.928299,-20.43558 6.821111,-22.974536 26.25748,-6.838014 53.982553,16.698227 67.355863,34.080746 6.22407,8.09 14.54369,22.00013 12.84174,28.60374 -7.58886,29.4449 -40.875785,31.56064 -83.563804,3.22347 z"
         id="path27"
         inkscape:connector-curvature="0"
         sodipodi:nodetypes="sssssss" />
      <path
         style="fill:#080706;stroke-width:0.26458335"
         d="m 84.85565,223.21784 c -0.582083,-0.0568 -2.546615,-0.23318 -4.365625,-0.39197 -20.814033,-1.81699 -38.901815,-9.22567 -49.477799,-20.26591 -1.236534,-1.29082 -2.741541,-3.00039 -3.344459,-3.79906 -1.507127,-1.99644 -3.64742,-5.80783 -4.46949,-7.95916 -0.375921,-0.98377 -0.825236,-1.89897 -0.998477,-2.03376 -0.173242,-0.13479 -2.071156,-0.88562 -4.217589,-1.66851 -2.717357,-0.99112 -3.89911,-1.54531 -3.891098,-1.82477 0.0063,-0.22073 1.243025,-1.21487 2.748216,-2.20918 4.454001,-2.94228 4.388568,-2.8671 4.667822,-5.36312 0.740714,-6.62065 3.902355,-12.85047 9.503309,-18.72569 2.102493,-2.20544 6.085803,-5.52653 8.403002,-7.00601 0.763984,-0.48778 1.389062,-1.02787 1.389062,-1.2002 0,-0.17232 -1.275522,-1.32077 -2.834493,-2.5521 -6.646713,-5.24982 -12.032449,-11.63806 -14.616667,-17.33743 -2.525903,-5.57076 -2.662595,-11.23225 -0.380755,-15.77003 1.53407,-3.05074 4.832473,-6.04508 8.683664,-7.88318 2.227429,-1.06311 5.997796,-2.23779 8.147538,-2.53841 1.250628,-0.17489 1.976602,-0.6666 1.683759,-1.14043 -0.08594,-0.13906 -0.400524,-1.4242 -0.699069,-2.85587 -0.988952,-4.74248 -0.655393,-10.066211 0.844203,-13.473847 4.03614,-9.171594 14.814858,-12.073738 29.282706,-7.8843 5.006091,1.449608 12.26929,4.729696 17.544661,7.923232 22.189389,13.432735 39.709659,34.793365 43.010019,52.437625 0.25178,1.34606 0.5667,2.44739 0.69981,2.44739 0.13311,0 0.92446,-0.63182 1.75856,-1.40404 3.54633,-3.28328 7.49606,-5.71366 11.68663,-7.19111 l 2.01994,-0.71217 1.45901,-3.12075 c 3.10433,-6.64002 5.55205,-9.94949 8.23721,-11.13727 2.87328,-1.27099 7.01394,-1.25696 11.82067,0.04 1.85571,0.50072 2.09219,0.63446 2.09219,1.18318 0,0.63096 -1.50623,5.10451 -1.84755,5.48728 -0.10338,0.11593 -1.18848,-0.0487 -2.41135,-0.36582 -2.74518,-0.71192 -5.83671,-0.78186 -7.03012,-0.15905 -0.83457,0.43553 -1.96621,2.07603 -3.38352,4.90494 -0.94022,1.87666 -0.79779,2.15519 1.10434,2.15951 0.84131,0.002 2.66075,0.23847 4.0432,0.52569 1.38245,0.28722 2.64152,0.52378 2.79794,0.52569 0.15642,0.002 0.98283,-0.97879 1.83648,-2.17934 1.9126,-2.68983 4.93176,-5.86635 6.34579,-6.67652 2.87145,-1.6452 8.06221,-1.72095 13.06127,-0.1906 0.78078,0.23902 1.47656,0.58302 1.54619,0.76446 0.13131,0.34221 -1.42046,5.33637 -1.78088,5.7315 -0.11246,0.12328 -1.19187,-0.0256 -2.39871,-0.33073 -2.51537,-0.63608 -5.67117,-0.72538 -6.93742,-0.19631 -1.10828,0.46307 -4.94566,4.94798 -4.94566,5.78021 0,0.1073 0.8632,0.78055 1.91823,1.49609 8.15852,5.53335 13.50852,14.09056 15.15464,24.23953 0.45149,2.78368 0.50879,8.46332 0.11531,11.43198 -0.41986,3.16776 -1.7455,7.59538 -3.18093,10.62425 -6.24518,13.17785 -18.72159,20.62034 -32.42903,19.34474 l -3.08894,-0.28745 -1.48162,1.43172 c -10.34441,9.99603 -26.96541,16.68795 -46.83643,18.85717 -3.476936,0.37956 -14.403071,0.70811 -16.55769,0.49788 z m 20.27696,-7.93406 c 1.63073,-0.22745 4.34349,-0.69472 6.02837,-1.03837 4.64888,-0.94822 12.45871,-3.23714 13.07573,-3.83226 0.12249,-0.11815 -1.07949,-1.50762 -2.67109,-3.08772 -4.15737,-4.12734 -6.69847,-8.19252 -9.07349,-14.51549 -2.34748,-6.24967 -3.97607,-14.37835 -4.29358,-21.43033 l -0.0596,-1.32292 -1.19062,0.0464 c -12.441292,0.48515 -13.745045,0.43289 -21.664749,-0.86854 -2.854664,-0.4691 -4.153302,-0.58546 -4.349081,-0.38968 -0.58235,0.58235 0.906968,10.93781 2.362285,16.42534 3.102184,11.69732 8.210005,21.62282 14.26264,27.7151 3.094105,3.11437 2.662455,2.98337 7.573155,2.29844 z m -43.428002,-3.30295 c 0,-0.15231 -0.543118,-1.21852 -1.206929,-2.36937 -3.628567,-6.29087 -6.502479,-14.87537 -8.068559,-24.10116 -1.091673,-6.43105 -1.001098,-16.81442 0.202605,-23.22628 0.774287,-4.12446 0.87485,-3.86425 -2.171909,-5.61974 -1.455208,-0.83847 -2.830703,-1.5317 -3.056655,-1.54052 -0.479665,-0.0187 -5.601557,3.26442 -7.526679,4.82459 -2.384136,1.93218 -5.187357,4.79938 -5.568258,5.69534 -1.059314,2.49173 -1.488277,9.05979 -0.902111,13.81265 0.847142,6.86897 3.516386,15.12877 6.815574,21.09034 1.142656,2.06475 1.332579,2.26146 3.605493,3.7344 4.440129,2.87738 8.37106,4.76511 14.173261,6.80639 3.62658,1.27587 3.704167,1.29458 3.704167,0.89336 z M 160.43706,195.7446 c 2.19979,-0.42325 4.93082,-1.36619 5.49421,-1.89699 0.32519,-0.30636 0.30679,-0.38135 -0.13229,-0.53927 -4.52097,-1.62598 -8.70239,-3.7522 -12.94541,-6.58265 -6.03614,-4.02661 -9.35135,-7.70379 -8.7249,-9.67754 0.37103,-1.16903 3.6319,-1.72448 5.51204,-0.93891 1.32236,0.55252 2.4481,2.1086 2.96933,4.10445 0.25126,0.96209 0.58743,1.88819 0.74706,2.058 0.15962,0.16982 4.18567,2.17496 8.94677,4.45588 l 8.65655,4.14713 0.76192,-0.54254 c 1.16409,-0.8289 3.86439,-3.80688 5.09472,-5.61862 3.3317,-4.90616 5.2716,-11.27488 5.27034,-17.30268 -5.3e-4,-2.56767 -0.5702,-6.94165 -1.06949,-8.21165 -0.28218,-0.71776 -0.32573,-0.73936 -0.51409,-0.25502 -0.11319,0.29105 -0.33977,1.40268 -0.50351,2.47031 -0.35925,2.3424 -1.3755,4.59955 -2.39902,5.32836 -2.85969,2.03629 -5.63671,-1.44834 -6.01697,-7.55013 -0.27572,-4.42439 1.04197,-8.80622 2.99464,-9.95832 0.49307,-0.29092 0.89648,-0.69437 0.89648,-0.89655 0,-0.20219 -0.89578,-1.25472 -1.99062,-2.33896 -4.1654,-4.12504 -8.9796,-6.53091 -14.60745,-7.29999 -2.63157,-0.35962 -5.67441,-0.24031 -6.25971,0.24545 -0.29384,0.24386 -2.28199,4.98791 -3.58878,8.56339 -0.14763,0.40391 -0.45129,0.80456 -0.67482,0.89033 -0.42885,0.16457 -4.80897,-1.31132 -5.59288,-1.88453 -0.43146,-0.31549 -0.41602,-0.45394 0.25256,-2.26482 0.39166,-1.06083 0.64778,-1.99311 0.56917,-2.07172 -0.23905,-0.23905 -1.87316,0.76153 -3.68667,2.25739 -4.42438,3.64944 -7.87334,9.35562 -9.47888,15.68246 -0.49172,1.93769 -0.57479,2.997 -0.57202,7.294 0.003,4.64693 0.0575,5.22286 0.72013,7.61597 1.48368,5.35791 3.62416,9.31091 6.96431,12.8615 3.9876,4.23885 8.35064,6.74916 13.604,7.82719 2.30919,0.47386 6.91672,0.48826 9.30328,0.0291 z m -2.65609,-23.17489 c -2.28504,-0.5395 -4.39143,-2.95393 -5.36051,-6.14441 -0.71564,-2.35609 -0.60347,-6.43617 0.23635,-8.59744 2.16915,-5.5822 7.50961,-7.12734 11.05824,-3.19944 2.94775,3.26281 3.57354,9.22739 1.42951,13.62509 -1.00198,2.05521 -2.94672,3.86827 -4.59417,4.28311 -1.31849,0.33199 -1.49452,0.3341 -2.76942,0.0331 z m 1.6511,-12.07409 c 0.83845,-0.83846 1.02226,-2.69379 0.38519,-3.88806 -0.31455,-0.58966 -1.75467,-1.23233 -2.31963,-1.03515 -1.93715,0.67608 -2.46309,3.46014 -0.94116,4.98207 0.85683,0.85683 1.98295,0.83378 2.8756,-0.0589 z m -57.3785,3.07617 c 9.10293,-0.58787 15.1963,-3.36369 17.26159,-7.86347 0.57657,-1.2562 0.69899,-1.90157 0.69112,-3.64329 -0.0112,-2.47176 -0.42739,-3.99224 -1.88823,-6.89771 -7.90205,-15.7164 -36.945466,-31.6817 -62.317551,-34.25626 -3.969596,-0.40281 -12.007215,-0.19768 -14.814023,0.37806 -4.788654,0.98227 -8.111741,2.51295 -10.395866,4.78855 -7.20745,7.18055 1.773379,21.7406 20.398373,33.07059 12.86759,7.82763 30.071753,13.55841 43.231184,14.40049 1.834515,0.11739 3.454546,0.22827 3.600067,0.24639 0.14552,0.0181 2.05052,-0.0824 4.233336,-0.22335 z m 74.06833,-8.78751 c 0.83513,-1.19231 0.35435,-3.11613 -0.77875,-3.11613 -0.75931,0 -1.19062,0.68104 -1.19062,1.88 0,0.88854 0.62401,1.82417 1.21662,1.82417 0.18748,0 0.52622,-0.26462 0.75275,-0.58804 z m -51.26686,-13.57692 c -0.44042,-4.71633 -4.42191,-13.35648 -9.32264,-20.23087 -12.98177,-18.20992 -34.767404,-33.489695 -51.916921,-36.412938 -3.316547,-0.565326 -7.992097,-0.38685 -10.174624,0.388387 -3.069381,1.090251 -4.950568,2.953134 -5.935837,5.878086 -0.724572,2.151021 -0.653891,6.779772 0.151262,9.905835 0.337326,1.30969 0.718691,2.51194 0.847479,2.67168 0.135168,0.16764 1.77046,0.36752 3.868135,0.4728 19.209028,0.96402 41.011253,9.16311 56.957716,21.41989 1.52797,1.17443 4.45076,3.80743 6.49509,5.8511 3.7372,3.736 6.07435,6.69173 7.90689,9.99964 0.54417,0.98226 1.0559,1.78593 1.13718,1.78593 0.0813,0 0.0751,-0.77829 -0.0137,-1.72954 z"
         id="path23"
         inkscape:connector-curvature="0" />
    </g>
  </g>
</svg>
